<svg width="24" height="23" viewBox="0 0 24 23" fill="none" xmlns="http://www.w3.org/2000/svg">
<path d="M22.7633 19.3452V11.3539C22.7633 10.1542 22.2841 9.00292 21.4128 8.17828C20.3913 7.21162 18.9742 5.90754 17.8301 4.9942C15.666 3.26652 14.5859 1.85492 12.0001 1.85492C9.41418 1.85492 8.33409 3.26652 6.16997 4.9942C5.0259 5.90754 3.60877 7.21162 2.58735 8.17828C1.716 9.00292 1.23682 10.1542 1.23682 11.3539V19.3452C1.23682 20.8313 2.44153 21.6378 3.92763 21.6378H7.76391C8.3162 21.6378 8.76391 21.19 8.76391 20.6378V16.3006V15.3398C8.76391 13.5289 10.2319 12.0609 12.0428 12.0609C13.8536 12.0609 15.3216 13.5289 15.3216 15.3398V16.3006V20.6378C15.3216 21.19 15.7693 21.6378 16.3216 21.6378H20.0725C21.5586 21.6378 22.7633 20.8313 22.7633 19.3452Z" stroke="#B8B8B8" stroke-width="2"/>
</svg>
