<svg width="24" height="24" viewBox="0 0 24 24" fill="none" xmlns="http://www.w3.org/2000/svg">
<path d="M23.8737 20.1633V11.3474C23.8737 10.0239 23.3451 8.75386 22.3838 7.84413C21.257 6.77772 19.6936 5.33909 18.4315 4.3315C16.0441 2.42554 14.8525 0.868286 11.9998 0.868286C9.14713 0.868286 7.95559 2.42554 5.56816 4.3315C4.30604 5.33909 2.74269 6.77772 1.61587 7.84413C0.654605 8.75386 0.125977 10.024 0.125977 11.3474V20.1633C0.125977 21.8027 1.455 23.1318 3.09444 23.1318H7.0524C8.14535 23.1318 9.03137 22.2458 9.03137 21.1528V16.8045C9.03137 15.812 9.52741 14.8852 10.3532 14.3346C11.3503 13.6699 12.6493 13.6699 13.6464 14.3346C14.4723 14.8852 14.9683 15.812 14.9683 16.8045V21.1528C14.9683 22.2458 15.8543 23.1318 16.9473 23.1318H20.9052C22.5447 23.1318 23.8737 21.8027 23.8737 20.1633Z" fill="black"/>
</svg>
